<svg version="1.1" id="svg-logo" xmlns="http://www.w3.org/2000/svg" xmlns:xlink="http://www.w3.org/1999/xlink" x="0px"
		 y="0px" width="540px" height="128px" viewBox="-2 -2 540 128" enable-background="new 0 0 540 128"
		 xml:space="preserve">
		<defs>
			<style type="text/css"><![CDATA[
				.svg-p{
					fill:rgba(0,0,0,0);
					stroke:rgba(0,0,0,0.7);
					stroke-width:2;
					stroke-dasharray: 2300;
					stroke-dashoffset:2000;
					animation: DASH 2.8s ease-in alternate forwards;
					-webkit-animation:DASH 2.8s ease-in 0s forwards;
					-o-animation:DASH 2.8s ease-in 0s forwards;
					animation:DASH 2.8s ease-in 0s forwards;
				}

				@-webkit-keyframes DASH{
					0%{stroke-dashoffset:2500;}
					80% {stroke-dashoffset:1500;fill:rgba(0,0,0,0);}
					100%{stroke-dashoffset:0;fill:rgba(0,0,0,0.7);}
				}

				@keyframes DASH{
					0%{stroke-dashoffset:2500;}
					80% {stroke-dashoffset:1500;fill:rgba(0,0,0,0);}
					100%{stroke-dashoffset:0;fill:rgba(0,0,0,0.7);}
				}
				]]>
			</style>
		</defs>
		<path class="svg-p" fill="#222222" d="M43,61.059c0-1.72,0.86-2.58,2.58-2.58h30.96c1.72,0,2.58,0.86,2.58,2.58v24.08
				c0,22.016-17.715,39.731-39.559,39.731S0,107.154,0,85.139v-13.76c0-1.892,1.032-2.752,2.58-2.236l0.688,0.345
				c1.376,0.516,1.892,1.547,1.892,2.924v12.728c0,9.288,3.612,17.888,10.147,24.423c6.364,6.536,15.136,9.977,24.252,9.977
				c9.116,0,17.888-3.44,24.251-9.977c6.536-6.535,10.148-15.135,10.148-24.423v-18.92c0-1.72-0.86-2.58-2.58-2.58h-20.64
				c-1.72,0-2.58,0.86-2.58,2.58v6.536c0,1.72,0.86,2.58,2.58,2.58h6.02c1.72,0,2.58,0.859,2.58,2.58v7.224
				c0,11.008-8.771,19.779-19.779,19.779s-19.78-8.771-19.78-19.779V73.271c0-1.376-0.688-2.408-1.892-2.924L1.892,63.295
				C0.688,62.779,0,61.747,0,60.371V39.559C0,17.716,17.716,0,39.56,0s39.559,17.716,39.559,39.559c0,1.72-0.86,2.58-2.58,2.58
				h-19.78c-1.72,0-2.58-0.516-2.58-1.376v-1.204c0-7.912-6.536-14.62-14.62-14.62s-14.62,6.708-14.62,14.62v19.608
				c0,1.892-1.032,2.752-2.58,2.064l-0.688-0.344c-1.376-0.516-1.892-1.548-1.892-2.924V39.559c0-10.835,8.772-19.78,19.78-19.78
				c9.116,0,17.027,6.364,19.092,14.964c0.516,1.376,1.376,2.236,2.924,2.236h9.46c1.72,0,2.752-1.032,2.408-2.752
				c-1.032-7.052-4.3-13.76-9.632-18.92C57.447,8.771,48.675,5.16,39.56,5.16c-9.116,0-17.888,3.612-24.252,10.148
				C8.772,21.844,5.16,30.443,5.16,39.559v17.544c0,1.376,0.688,2.408,1.892,2.924l15.996,7.224c1.204,0.516,1.892,1.548,1.892,2.924
				v14.964c0,8.083,6.536,14.62,14.62,14.62s14.62-6.537,14.62-14.62v-2.064c0-1.72-0.86-2.579-2.58-2.579h-6.02
				c-1.72,0-2.58-0.86-2.58-2.58V61.059z"/>
		<path class="svg-p" fill="#222222" d="M196.939,120.054c0,1.72-0.861,2.58-2.58,2.58h-49.02c-1.72,0-2.58-0.86-2.58-2.58V9.976
				c0-1.72-0.86-2.58-2.58-2.58h-10.319c-1.72,0-2.58,0.86-2.58,2.58v110.078c0,1.72-0.86,2.58-2.58,2.58s-2.58-0.86-2.58-2.58V4.816
				c0-1.72,0.86-2.58,2.58-2.58h20.64c1.72,0,2.58,0.86,2.58,2.58v110.078c0,1.721,0.86,2.58,2.58,2.58h38.7
				c1.719,0,2.58-0.859,2.58-2.58v-8.6c0-1.72-0.861-2.58-2.58-2.58h-33.54c-1.721,0-2.58-0.859-2.58-2.58
				c0-1.72,0.859-2.58,2.58-2.58h38.7c1.719,0,2.58,0.86,2.58,2.58V120.054z"/>
		<path class="svg-p" fill="#222222" d="M309.595,2.236c2.064,0,2.752,1.204,1.893,3.096l-27.863,55.555c-0.516,1.204-0.689,2.064-0.689,3.269
				v22.016c0,2.58-1.719,3.439-2.752,1.203l-2.062-3.955c-0.516-1.205-0.689-2.064-0.861-3.269V64.155
				c0-1.205,0.172-2.064,0.689-3.269l25.455-50.395c0.859-1.892,0.172-3.096-1.893-3.096h-9.975c-1.377,0-2.408,0.516-2.924,1.892
				l-17.201,34.228c-0.859,1.892-2.408,2.236-3.096,0.516l-1.547-2.752L250.601,9.288c-0.516-1.376-1.549-1.892-2.924-1.892h-9.977
				c-2.064,0-2.752,1.204-1.893,3.096l46.439,92.707c0.516,1.204,0.688,2.064,0.688,3.268v13.588c0,1.72-0.859,2.58-2.578,2.58h-21.5
				c-1.721,0-2.58-0.86-2.58-2.58V80.667c0-2.58,1.719-3.44,2.752-1.377l2.064,4.129c0.516,1.203,0.688,2.063,0.688,3.268v28.207
				c0,1.721,0.859,2.58,2.58,2.58h10.492c1.719,0,2.578-0.859,2.578-2.58v-8.428c0-1.203-0.172-2.063-0.688-3.268l-49.02-97.866
				c-0.859-1.892-0.172-3.096,1.893-3.096h21.156c1.375,0,2.408,0.516,2.924,1.892l14.275,28.208c0.859,1.892,2.58,1.892,3.439,0
				l14.104-28.208c0.518-1.376,1.549-1.892,2.924-1.892H309.595z"/>
		<path class="svg-p" fill="#222222" d="M384.931,2.236c19.607,0,35.604,15.996,35.604,35.604c0,19.78-15.996,35.775-35.604,35.775h-2.752
				c-1.721,0-2.58-0.859-2.58-2.58c0-1.72,0.859-2.58,2.58-2.58h2.752c8.084,0,15.652-3.096,21.5-8.943s8.943-13.416,8.943-21.671
				c0-8.084-3.096-15.652-8.943-21.5c-5.848-5.848-13.416-8.944-21.5-8.944h-28.035c-1.721,0-2.58,0.86-2.58,2.58v104.918
				c0,1.721,0.859,2.58,2.58,2.58h9.975c1.721,0,2.58-0.859,2.58-2.58V50.739c0-1.72,0.861-2.58,2.58-2.58h12.9
				c5.676,0,10.32-4.472,10.32-10.32c0-5.676-4.645-10.32-10.32-10.32h-12.9c-1.719,0-2.58-0.86-2.58-2.58
				c0-1.72,0.861-2.58,2.58-2.408h12.9c8.6,0,15.479,6.88,15.479,15.308c0,8.6-6.879,15.479-15.479,15.479h-7.912
				c-1.721,0-2.58,0.86-2.58,2.58v64.155c0,1.72-0.859,2.58-2.58,2.58h-20.123c-1.721,0-2.58-0.86-2.58-2.58V4.816
				c0-1.72,0.859-2.58,2.58-2.58H384.931z"/>
		<path class="svg-p" fill="#222222" d="M512.382,4.816c0-1.72,0.859-2.58,2.58-2.58h20.641c1.719,0,2.578,0.86,2.578,2.58v115.238
				c0,1.72-0.859,2.58-2.578,2.58h-20.641c-1.721,0-2.58-0.86-2.408-2.58V80.839c0-1.721-0.859-2.58-2.58-2.58h-19.779
				c-1.721,0-2.58-0.86-2.58-2.58c0-1.721,0.859-2.58,2.58-2.58h24.939c1.721,0,2.58,0.859,2.58,2.58v39.215
				c0,1.721,0.859,2.58,2.58,2.58h10.148c1.719,0,2.58-0.859,2.58-2.58V9.976c0-1.72-0.861-2.58-2.58-2.58h-10.148
				c-1.721,0-2.58,0.86-2.58,2.58v46.783c0,1.72-0.859,2.58-2.58,2.58h-30.1c-1.719,0-2.58,0.86-2.58,2.58v58.135
				c0,1.72-0.859,2.58-2.58,2.58h-20.639c-1.721,0-2.58-0.86-2.58-2.58V4.816c0-1.72,0.859-2.58,2.58-2.58h20.639
				c1.721,0,2.58,0.86,2.58,2.58v41.623c0,1.72-0.859,2.58-2.58,2.58c-1.719,0-2.58-0.86-2.58-2.58V9.976
				c0-1.72-0.859-2.58-2.58-2.58h-10.318c-1.721,0-2.58,0.86-2.58,2.58v104.918c0,1.721,0.859,2.58,2.58,2.58h10.318
				c1.721,0,2.58-0.859,2.58-2.58V56.759c0-1.72,0.861-2.58,2.58-2.58h29.928c1.721,0,2.58-0.86,2.58-2.58V4.816z"/>
</svg>